# xmcd
#
# Track frame offsets:
#   150
#   15849
#   31337
#   50060
#   69821
#   85392
#   105469
#   123340
#   142470
#   161608
#   180782
#   193011
#
# Disc length: 2797 seconds
#
# Revision: 0
# Processed by: cddbd v1.5.2PL0 Copyright (c) Steve Scherf et al.
# Submitted via: uFREEDB ActiveX Control 1.5
#
DISCID=970aeb0c
DTITLE=JOAO LUIZ CORREA - CAMPEIRISMO V
DYEAR=1900
DGENRE=Country
TTITLE0=ALMA E CAMPEIRISMO
TTITLE1=FORCA DO SUL
TTITLE2=CANCAO PARA UM PEAO SOLITO
TTITLE3=SONHOS
TTITLE4=PAGO DILETO
TTITLE5=PRECE TELURICA
TTITLE6=VETERANO
TTITLE7=MEU CANTO
TTITLE8=NA BAIXADA DO MANDUCA
TTITLE9=PRECE
TTITLE10=SAUDADE DO COMPADRE
TTITLE11=MINHA INFANCIA
EXTD=
EXTT0=
EXTT1=
EXTT2=
EXTT3=
EXTT4=
EXTT5=
EXTT6=
EXTT7=
EXTT8=
EXTT9=
EXTT10=
EXTT11=
PLAYORDER=
